<?xml version="1.0" encoding="UTF-8" standalone="no"?>
<!-- Created with Inkscape (http://www.inkscape.org/) -->

<svg
   width="800mm"
   height="100mm"
   viewBox="0 0 800 100"
   version="1.1"
   id="svg1"
   inkscape:export-filename="bitmap.png"
   inkscape:export-xdpi="96"
   inkscape:export-ydpi="96"
   inkscape:version="1.4.2 (f4327f4, 2025-05-13)"
   sodipodi:docname="dibujo.svg"
   xmlns:inkscape="http://www.inkscape.org/namespaces/inkscape"
   xmlns:sodipodi="http://sodipodi.sourceforge.net/DTD/sodipodi-0.dtd"
   xmlns="http://www.w3.org/2000/svg"
   xmlns:svg="http://www.w3.org/2000/svg">
  <sodipodi:namedview
     id="namedview1"
     pagecolor="#ffffff"
     bordercolor="#000000"
     borderopacity="0.25"
     inkscape:showpageshadow="2"
     inkscape:pageopacity="0.0"
     inkscape:pagecheckerboard="0"
     inkscape:deskcolor="#d1d1d1"
     inkscape:document-units="mm"
     inkscape:zoom="0.25"
     inkscape:cx="1066"
     inkscape:cy="366"
     inkscape:window-width="1920"
     inkscape:window-height="1017"
     inkscape:window-x="-8"
     inkscape:window-y="-8"
     inkscape:window-maximized="1"
     inkscape:current-layer="layer1" />
  <defs
     id="defs1">
   <linearGradient id="gradiente" x1="0%" y1="0%" x2="100%" y2="25%">
        <stop offset="0%" style="stop-color:#2a7b9b;"/> 
        <stop offset="15%" style="stop-color:#3e9d91;"/>
        <stop offset="50%" style="stop-color:#57c785;"/>
        <stop offset="85%" style="stop-color:#3e9d91;"/>
        <stop offset="100%" style="stop-color:#2a7b9b;"/> 
        
        <animate attributeName="x1" from="-100%" to="200%" dur="6s" repeatCount="indefinite" />
        <animate attributeName="x2" from="0%" to="700%" dur="6s" repeatCount="indefinite" />
    </linearGradient>
   
    <rect
       x="533.70579"
       y="62.330604"
       width="1666.432"
       height="270.88699"
       id="rect1" />
  </defs>
  <g
     inkscape:label="Capa 1"
     inkscape:groupmode="layer"
     id="layer1">
    <path
       d="m 549.95505,100.89186 h 70.10406 q 20.72913,0 33.43744,5.62499 12.81248,5.62499 21.1458,16.14581 8.33332,10.52081 12.08332,24.47912 3.74999,13.95832 3.74999,29.58329 0,24.47913 -5.62499,38.02077 -5.52082,13.43748 -15.41664,22.60413 -9.89582,9.06249 -21.24997,12.08332 -15.52081,4.16666 -28.12495,4.16666 h -70.10406 z m 47.18743,34.58328 v 83.43736 h 11.56248 q 14.79164,0 21.04163,-3.22916 6.24999,-3.33333 9.79165,-11.45831 3.54166,-8.22916 3.54166,-26.56246 0,-24.2708 -7.91665,-33.22911 -7.91665,-8.95832 -26.24996,-8.95832 z m 153.95809,43.33326 -40.52077,-4.27083 q 2.29166,-10.62498 6.56249,-16.66664 4.37499,-6.14582 12.49998,-10.62498 5.83332,-3.22916 16.04164,-4.99999 10.20832,-1.77083 22.0833,-1.77083 19.06247,0 30.62495,2.1875 11.56248,2.08333 19.2708,8.85415 5.41666,4.68749 8.54166,13.33331 3.12499,8.54165 3.12499,16.35414 v 48.85409 q 0,7.81249 0.9375,12.29165 1.04167,4.37499 4.37499,11.24998 h -39.7916 q -2.39583,-4.27083 -3.125,-6.45832 -0.72916,-2.29167 -1.45833,-7.08333 -8.33332,8.02082 -16.56247,11.45832 -11.24998,4.58332 -26.14579,4.58332 -19.79164,0 -30.10412,-9.16665 -10.20832,-9.16665 -10.20832,-22.60413 0,-12.60415 7.39582,-20.72913 7.39583,-8.12499 27.29163,-12.08332 23.85413,-4.79166 30.93745,-6.66665 7.08332,-1.97917 14.99997,-5.10416 0,-7.81249 -3.22916,-10.93748 -3.22916,-3.125 -11.35415,-3.125 -10.41665,0 -15.62497,3.33333 -4.06249,2.60416 -6.56249,9.79165 z m 36.77077,22.29163 q -8.74998,3.125 -18.22913,5.52083 -12.91665,3.43749 -16.35414,6.77082 -3.54166,3.43749 -3.54166,7.81249 0,4.99999 3.43749,8.22915 3.54166,3.12499 10.31248,3.12499 7.08333,0 13.12498,-3.43749 6.14583,-3.43749 8.64582,-8.33332 2.60416,-4.99999 2.60416,-12.91665 z m 66.87492,-58.12491 h 39.4791 v 18.02081 q 8.85415,-11.04165 17.91664,-15.72914 9.06248,-4.79166 22.0833,-4.79166 17.60413,0 27.49995,10.52082 9.99999,10.41665 9.99999,32.29161 v 70.31239 h -42.6041 v -60.83324 q 0,-10.41665 -3.85416,-14.68747 -3.85416,-4.375 -10.83332,-4.375 -7.70832,0 -12.49998,5.83333 -4.79166,5.83332 -4.79166,20.93746 v 53.12492 H 854.74626 Z M 998.6002,100.89186 h 42.3958 v 28.85412 h -42.3958 z m 0,42.08326 h 42.3958 v 110.62483 h -42.3958 z m 192.2913,65.83323 h -84.9999 q 1.1459,10.20832 5.5209,15.20831 6.1458,7.18749 16.0416,7.18749 6.25,0 11.875,-3.12499 3.4375,-1.97917 7.3958,-6.97916 l 41.7708,3.85416 q -9.5833,16.66664 -23.125,23.9583 -13.5416,7.18748 -38.8541,7.18748 -21.9791,0 -34.5833,-6.14582 -12.6041,-6.24999 -20.9374,-19.68747 -8.2292,-13.54164 -8.2292,-31.77078 0,-25.93746 16.5625,-41.9791 16.6666,-16.04164 45.9374,-16.04164 23.75,0 37.5,7.18749 13.7499,7.18749 20.9374,20.8333 7.1875,13.64581 7.1875,35.52077 z m -43.1249,-20.31246 q -1.25,-12.29165 -6.6667,-17.60414 -5.3125,-5.31249 -14.0625,-5.31249 -10.1041,0 -16.1458,8.02082 -3.8541,4.99999 -4.8958,14.89581 z m 64.0624,-87.60403 h 42.5 v 152.70809 h -42.5 z m 143.0206,0 h 62.0833 l 23.9583,92.91652 23.8541,-92.91652 h 61.8749 v 152.70809 h -38.5416 V 137.1418 l -29.8958,116.45815 H 1423.287 L 1393.4954,137.1418 v 116.45815 h -38.6458 z m 193.8539,97.70818 q 0,-25.31246 17.0833,-41.6666 17.0833,-16.45831 46.1457,-16.45831 33.2291,0 50.2083,19.2708 13.6458,15.52081 13.6458,38.22911 0,25.52079 -16.9792,41.87493 -16.8749,16.24997 -46.7707,16.24997 -26.6666,0 -43.1249,-13.54164 -20.2083,-16.77081 -20.2083,-43.95826 z m 42.4999,-0.10417 q 0,14.79164 5.9375,21.87496 6.0416,7.08333 15.1041,7.08333 9.1667,0 15,-6.97916 5.9375,-6.97915 5.9375,-22.3958 0,-14.37497 -5.9375,-21.35413 -5.9375,-7.08332 -14.6875,-7.08332 -9.2708,0 -15.3125,7.18749 -6.0416,7.08332 -6.0416,21.66663 z m 105.4165,-55.52075 h 39.6874 v 18.12498 q 5.7292,-11.77082 11.7708,-16.14581 6.1459,-4.47916 15.1042,-4.47916 9.375,0 20.5208,5.83332 l -13.125,30.20829 q -7.5,-3.125 -11.875,-3.125 -8.3333,0 -12.9166,6.87499 -6.5625,9.68749 -6.5625,36.24994 v 37.08328 h -42.6041 z m 220.5205,65.83323 h -84.9999 q 1.1459,10.20832 5.5209,15.20831 6.1458,7.18749 16.0416,7.18749 6.25,0 11.875,-3.12499 3.4375,-1.97917 7.3958,-6.97916 l 41.7708,3.85416 q -9.5833,16.66664 -23.125,23.9583 -13.5416,7.18748 -38.8541,7.18748 -21.9791,0 -34.5833,-6.14582 -12.6041,-6.24999 -20.9374,-19.68747 -8.2292,-13.54164 -8.2292,-31.77078 0,-25.93746 16.5625,-41.9791 16.6666,-16.04164 45.9374,-16.04164 23.75,0 37.5,7.18749 13.7499,7.18749 20.9374,20.8333 7.1875,13.64581 7.1875,35.52077 z m -43.1249,-20.31246 q -1.25,-12.29165 -6.6667,-17.60414 -5.3125,-5.31249 -14.0625,-5.31249 -10.1041,0 -16.1458,8.02082 -3.8541,4.99999 -4.8958,14.89581 z m 113.7497,-87.60403 v 42.08326 h 23.3333 v 30.93746 h -23.3333 v 39.27077 q 0,7.08332 1.3542,9.37498 2.0833,3.54166 7.2917,3.54166 4.6875,0 13.1249,-2.70833 l 3.125,29.27079 q -15.7291,3.43749 -29.3749,3.43749 -15.8333,0 -23.3333,-4.06249 -7.5,-4.06249 -11.1458,-12.29165 -3.5417,-8.33332 -3.5417,-26.87495 v -38.95827 h -15.625 v -30.93746 h 15.625 v -20.31246 z"
       id="text1"
       style="font-weight:900;font-size:213.333px;font-family:Arial;-inkscape-font-specification:'Arial, Heavy';white-space:pre;fill:url(#gradiente);fill-opacity:1"
       transform="matrix(0.26458333,0,0,0.26458333,60.409597,3.9541505)"
       aria-label="Daniel Moret" />
       
       <circle cx="100" cy="25" r="2.5" fill="white">
        <animate attributeName="opacity" values="0.6; 0.1; 0.6; 0.3" dur="1.8s" repeatCount="indefinite" />
    </circle>
    
    <circle cx="400" cy="10" r="3" fill="white">
        <animate attributeName="opacity" values="0.5; 0.1; 0.5; 0.2" dur="3s" begin="1.5s" repeatCount="indefinite" />
    </circle>
    
    <circle cx="750" cy="30" r="2" fill="white">
        <animate attributeName="opacity" values="0.7; 0.2; 0.7; 0.4" dur="1.5s" begin="0.1s" repeatCount="indefinite" />
    </circle>

    <circle cx="250" cy="80" r="2.5" fill="white">
        <animate attributeName="opacity" values="0.4; 0.1; 0.4; 0.2" dur="2.2s" begin="1s" repeatCount="indefinite" />
    </circle>

    <circle cx="500" cy="90" r="3.5" fill="white">
        <animate attributeName="opacity" values="0.6; 0; 0.6" dur="4s" begin="2s" repeatCount="indefinite" />
    </circle>

    <circle cx="350" cy="50" r="2.2" fill="white">
        <animate attributeName="opacity" values="0.5; 0.2; 0.5" dur="1.8s" repeatCount="indefinite" />
        <animateMotion path="M 0 0 C 5 2, 2 -5, 0 0" dur="4s" repeatCount="indefinite" />
    </circle>

    <circle cx="650" cy="80" r="2.8" fill="white">
        <animate attributeName="opacity" values="0.5; 0.1; 0.5" dur="2.8s" begin="2s" repeatCount="indefinite" />
    </circle>
    
    <circle cx="580" cy="40" r="1.8" fill="white">
        <animate attributeName="opacity" values="0.7; 0.3; 0.7" dur="1.3s" begin="0.8s" repeatCount="indefinite" />
    </circle>
    
    <circle cx="20" cy="60" r="2" fill="white">
        <animate attributeName="opacity" values="0.4; 0.1; 0.4" dur="2s" begin="2s" repeatCount="indefinite" />
    </circle>
    
    <circle cx="780" cy="65" r="3" fill="white">
        <animate attributeName="opacity" values="0.6; 0.2; 0.6" dur="2.3s" begin="0.3s" repeatCount="indefinite" />
    </circle>

    <circle cx="150" cy="70" r="2.5" fill="white">
        <animate attributeName="opacity" values="0.5; 0.1; 0.5" dur="1.6s" begin="0.6s" repeatCount="indefinite" />
    </circle>
    
    <circle cx="300" cy="15" r="2" fill="white">
        <animate attributeName="opacity" values="0.7; 0.3; 0.7" dur="1.9s" begin="1.9s" repeatCount="indefinite" />
    </circle>
    
    <circle cx="550" cy="25" r="3" fill="white">
        <animate attributeName="opacity" values="0.6; 0.2; 0.6" dur="2.8s" begin="0.2s" repeatCount="indefinite" />
    </circle>
    
    <circle cx="700" cy="5" r="2.5" fill="white">
        <animate attributeName="opacity" values="0.4; 0.1; 0.4" dur="2.8s" begin="2.8s" repeatCount="indefinite" />
    </circle>
    
    <circle cx="450" cy="75" r="3" fill="white">
        <animate attributeName="opacity" values="0.5; 0.2; 0.5" dur="2.4s" begin="1.4s" repeatCount="indefinite" />
    </circle>
  </g>
</svg>
